<?xml version="1.0" encoding="UTF-8"?>
<!DOCTYPE svg PUBLIC "-//W3C//DTD SVG 1.1//EN" "http://www.w3.org/Graphics/SVG/1.1/DTD/svg11.dtd">
<!-- Creator: CorelDRAW -->
<svg xmlns="http://www.w3.org/2000/svg" xml:space="preserve" width="201.28mm" height="214.232mm" version="1.1" style="shape-rendering:geometricPrecision; text-rendering:geometricPrecision; image-rendering:optimizeQuality; fill-rule:evenodd; clip-rule:evenodd"
viewBox="0 0 484.51 515.68"
 xmlns:xlink="http://www.w3.org/1999/xlink"
 xmlns:xodm="http://www.corel.com/coreldraw/odm/2003">
 <defs>
  <style type="text/css">
   <![CDATA[
    .fil0 {fill:#FA9803}
    .fil1 {fill:#65B035;fill-rule:nonzero}
    .fil3 {fill:#8601B0;fill-rule:nonzero}
    .fil2 {fill:#FA9803;fill-rule:nonzero}
   ]]>
  </style>
 </defs>
 <g id="Слой_x0020_1">
  <metadata id="CorelCorpID_0Corel-Layer"/>
  <g id="_1927089795744">
   <path class="fil0" d="M196.26 84.2l-0.8 -2.53 1.14 2.4c37.07,77.18 65.33,70.41 71.9,115.57 -11.94,4.35 -29.93,7.87 -42.85,22.77 -31.39,-41.13 -2.98,-53.18 -29.39,-138.21z"/>
   <path class="fil1" d="M85.92 262.88c-26.01,-12.27 -44.86,-21.38 -54.18,-53.71 -1.52,-5.27 0.52,-12.81 -1.49,-20.42 -3.41,-12.89 -10.96,-26.69 -12.62,-35 -5.52,-27.54 4.83,-37.46 22.45,-55.78 7.4,-7.69 13.49,-15.94 19.71,-19.43 17.63,-9.9 38.92,-12.06 59.55,-8.69 46.51,7.61 79.41,33.42 84.45,81.47 -16.24,-32.01 -21.59,-52.31 -72.49,-60.64 -23.18,-3.54 -45.38,7.07 -66.69,21 -18.55,12.12 -24.9,18.67 -19.75,44.56 1.49,7.51 6.55,18.6 11.47,32.18 10.09,27.84 -7.09,40.67 39.99,68.16 21.38,10.09 48.37,13.66 79.35,12.62 -22.76,8.09 -38.74,10.64 -89.75,-6.32z"/>
   <path class="fil1" d="M65.85 261.44c-13.82,-2.95 -19.77,0.87 -20.23,6.12 -0.56,6.39 3.39,19.18 37.48,12.16 7.87,-1.62 25.85,0.34 31.29,1.1 13.11,1.85 22.41,12.86 34.02,19.84 32.59,19.6 46.83,11.66 82.05,5.21 -22.14,12.85 -39.46,19.15 -55.61,19.63 -22.08,0.66 -40.09,-4.88 -58.04,-7.56 -29.75,-4.45 -67.74,-11.94 -76.54,-43.74 -4.22,-15.26 13.85,-26.95 25.58,-12.77z"/>
   <path class="fil1" d="M176.17 296.77c-1.78,-4.67 -1.19,-10.68 -0.26,-15.43 2.22,-11.4 10.51,-25.34 21.03,-38.38 15.06,-18.67 48.4,-49.31 77.84,-51.93 16.02,-1.42 16.7,5.2 23.95,6.9 2.44,0.57 8.66,-1.88 15.33,-5.05 50.33,-23.91 49.21,-11.83 97.51,-7.68 -14.17,30.87 -31.68,65.57 -57.97,88.27 -18.84,16.26 -29.19,11.01 -48.27,18.23 -27.13,10.26 -33.83,14.79 -40.36,14.75 -4.27,-0.03 -23.86,-6.82 -43.79,-7.68 -14.79,-0.64 -40.73,9.18 -45,-2zm126.81 -13.45c17.37,-6.15 28.09,-5.37 43.44,-19.82 18.09,-17.03 44.31,-52.82 52.71,-70.27 -69.46,-17.77 -94.13,37.46 -107.57,34.47 -19.43,-4.33 -21.63,-8.32 -33.41,-7.47 -11.28,0.81 -32.12,5.79 -51.85,30.25 -5.6,6.95 -22.45,28.44 -19.75,37.11 1.82,5.83 14.45,2.83 23.95,1.18 47.53,-8.24 31.1,16.3 92.49,-5.45z"/>
   <path class="fil1" d="M292.77 185.9c18.94,-33.89 26.93,-65.1 38.08,-101.35 6.18,-20.12 9.72,-24.54 17.93,-41.36 5.61,-11.49 1.32,-40.04 15.17,-42.95 10.83,-2.28 20.91,12.57 25.34,27 0.92,3 13.1,12.07 16.1,33.29 2.2,15.54 -1.31,35.61 -0.72,53.84 1.24,38.69 4.3,53.47 -1.5,66.99 -0.33,-23.9 -2.4,-31.74 -12.22,-63.81 -8.64,-28.22 -11.57,-16.57 -5.65,-45.42 3.23,-15.74 0.64,-34.78 -3.49,-49.47 -2.48,-8.82 -9.48,-13.87 -16.62,-11.7 -5.87,1.78 0.5,36.52 -3.93,44.78 -8.36,15.6 -13.78,16.9 -19.25,34.75 -11.75,38.35 -14.99,58.86 -49.24,95.41z"/>
   <path class="fil1" d="M165.38 78.64c-5.45,-12.08 -8.68,-24.17 -0.32,-36.19 7.87,-11.31 18.89,-28.92 32.67,-35.43 21.22,-10.01 64.74,-1.61 95.65,18.29 10.05,6.47 37.16,26.62 39.53,36.74 -8.85,-6.67 -25.5,-16.76 -37.92,-22.75 -31.04,-14.97 -61.98,-23.78 -83.02,-17.08 -22.84,7.27 -37.66,29.7 -46.59,56.42z"/>
   <ellipse class="fil0" transform="matrix(0.997712 0.0676135 -0.0676135 0.997712 134.233 133.652)" rx="8.59" ry="3.78"/>
   <path class="fil2" d="M142.63 133.34c19.61,5.66 36,22.36 51.95,40.15 11.9,13.28 24.38,27.22 38.2,35.79l-2.98 2.18c-14.12,-8.63 -25.73,-22 -37.9,-35.58 -14.73,-16.43 -29.02,-33.36 -46.27,-39.65 -1.02,-0.37 -3.15,-1.11 -4.19,-1.41l1.19 -1.49z"/>
   <ellipse class="fil0" transform="matrix(0.607085 -0.794637 0.794637 0.607085 149.667 254.603)" rx="8.59" ry="3.78"/>
   <path class="fil2" d="M152.05 249.59c16.1,-29.96 43.6,-37.28 75.15,-36.14l-3.02 2.41c-27.71,-0.3 -56.59,9.34 -70.31,34.88l-1.82 -1.15z"/>
   <ellipse class="fil0" transform="matrix(0.997712 0.0676135 -0.0676135 0.997712 164.606 172.063)" rx="8.59" ry="3.78"/>
   <polygon class="fil2" points="172.39,171.48 209.36,180.75 209.69,184.97 172.64,173.82 "/>
   <ellipse class="fil0" transform="matrix(0.722088 -0.691801 0.691801 0.722088 281.819 76.6942)" rx="8.59" ry="3.78"/>
   <path class="fil2" d="M277.31 82.26c-7.39,9.66 -12.81,29.32 -15.9,49.63 -3.26,21.37 -3.98,44.56 -2.77,63.04l-3.95 1.61c-1.21,-19.01 -0.17,-43.38 3.15,-65.19 3.17,-20.84 9.87,-39.98 17.65,-50.17l1.81 1.08z"/>
   <ellipse class="fil0" transform="matrix(0.846933 0.531699 -0.531699 0.846933 303.428 135.104)" rx="8.59" ry="3.78"/>
   <path class="fil2" d="M302.11 133.65c-36.61,-5.4 -37.85,30.69 -34.78,58.62l-0.23 0.04c-1.11,-4.43 -1.73,-6.35 -3.83,-11.94 -2.45,-28.38 7.49,-53.11 39.07,-48.46l-0.23 1.75z"/>
   <ellipse class="fil0" transform="matrix(0.796559 -0.604561 0.604561 0.796559 316.153 106.197)" rx="8.59" ry="3.78"/>
   <path class="fil2" d="M312.32 110.93c-19.14,10.04 -38.18,59.82 -42.38,80.77l-2.95 0.61c3.97,-21.11 25.49,-73.3 44.52,-83.28l0.8 1.9z"/>
   <ellipse class="fil0" transform="matrix(0.28511 -0.958495 0.958495 0.28511 222.741 83.1195)" rx="8.59" ry="3.78"/>
   <path class="fil2" d="M221.81 90.41c-0.99,7.22 -1.32,15.63 0.13,22.87 1.46,7.28 5.4,17.83 8.45,25.17l-4.65 -5.86c-3.12,-7.51 -4.75,-11.04 -6.27,-18.61 -1.53,-7.62 -0.74,-16.6 0.3,-24.23l2.03 0.66z"/>
   <ellipse class="fil0" transform="matrix(-0.876369 -0.481641 -0.481641 0.876369 174.853 102.122)" rx="8.59" ry="3.78"/>
   <path class="fil2" d="M182.28 104.04c6.11,4.7 12.32,11.25 16.59,17.74 4.24,6.46 5.96,9.43 9.02,16.96l0.71 8.97c-2.92,-7.2 -6.27,-17.14 -11.56,-25.06 -4.58,-6.86 -10.55,-12.47 -15.95,-16.62l1.2 -2z"/>
  </g>
  <path class="fil3" d="M28.11 429.53l61.71 0 0 26.48 -61.71 0 0 58.45 -28.11 0 0 -142.57 94.91 0 0 26.48 -66.8 0 0 31.16zm104.89 -26.07c-4.21,0 -7.77,-1.29 -10.69,-3.87 -2.92,-2.58 -4.38,-5.77 -4.38,-9.57 0,-3.8 1.46,-6.99 4.38,-9.57 2.92,-2.58 6.48,-3.87 10.69,-3.87 4.34,0 7.98,1.29 10.9,3.87 2.92,2.58 4.38,5.77 4.38,9.57 0,3.8 -1.46,6.99 -4.38,9.57 -2.92,2.58 -6.55,3.87 -10.9,3.87zm-12.83 111l0 -101.84 25.87 0 0 101.84 -25.87 0zm108.76 -103.26c14.53,0 26.88,5.13 37.07,15.38 10.18,10.25 15.28,22.57 15.28,36.97 0,14.39 -5.09,26.68 -15.28,36.87 -10.18,10.18 -22.54,15.28 -37.07,15.28 -14.53,0 -26.85,-5.09 -36.97,-15.28 -10.12,-10.18 -15.17,-22.47 -15.17,-36.87 0,-14.53 5.09,-26.88 15.28,-37.07 10.18,-10.18 22.47,-15.28 36.87,-15.28zm18.43 32.69c-5.23,-5.09 -11.37,-7.64 -18.43,-7.64 -7.06,0 -13.2,2.55 -18.43,7.64 -5.23,5.09 -7.84,11.64 -7.84,19.65 0,8.01 2.58,14.53 7.74,19.55 5.16,5.02 11.34,7.54 18.53,7.54 7.06,0 13.2,-2.51 18.43,-7.54 5.23,-5.02 7.84,-11.54 7.84,-19.55 0,-8.01 -2.61,-14.56 -7.84,-19.65zm127.19 -7.64l-10.39 0c-9.23,0 -16.29,2.89 -21.18,8.66 -4.89,5.77 -7.33,13.61 -7.33,23.52l0 46.03 -25.87 0 0 -101.84 17.31 0 2.85 22c8.28,-15.61 21.73,-23.42 40.33,-23.42l4.28 0 0 25.05zm27.29 78.21l0 -101.84 25.87 0 0 101.84 -25.87 0z"/>
  <path class="fil3" d="M404.53 380.47c2.83,-2.84 6.25,-4.26 10.27,-4.26 4.02,0 7.45,1.42 10.29,4.26 2.84,2.84 4.26,6.27 4.26,10.29 0,4.02 -1.42,7.45 -4.26,10.29 -2.84,2.84 -6.27,4.26 -10.29,4.26 -4.02,0 -7.45,-1.42 -10.27,-4.26 -2.83,-2.84 -4.24,-6.27 -4.24,-10.29 0,-4.02 1.41,-7.45 4.24,-10.29zm53.07 24.56l-5.62 0 0 -23.23 -10.76 0 0 23.23 -5.62 0 0 -28.53 22.01 0 0 28.53zm19.08 -23.23l0 23.23 -5.62 0 0 -23.23 -7.83 0 0 -5.3 21.28 0 0 5.3 -7.83 0z"/>
 </g>
</svg>
