<svg width="860" height="860" viewBox="0 0 860 860" fill="none" xmlns="http://www.w3.org/2000/svg">
<path fill-rule="evenodd" clip-rule="evenodd" d="M391.732 247.892L389.992 242.035L392.472 247.591C473.093 426.249 534.555 410.577 548.844 515.115C522.876 525.184 483.75 533.332 455.651 567.823C387.382 472.615 449.17 444.721 391.732 247.892Z" fill="#FA9803"/>
<path d="M151.759 661.504C95.1907 633.101 54.1947 612.013 33.9251 537.175C30.6193 524.976 35.056 507.522 30.6845 489.906C23.2683 460.068 6.84812 428.124 3.23787 408.888C-8.76733 345.138 13.7424 322.174 52.0634 279.767C68.1573 261.966 81.4021 242.869 94.9297 234.79C133.272 211.873 179.575 206.873 224.442 214.674C325.595 232.29 397.148 292.036 408.109 403.263C372.789 329.165 361.154 282.174 250.454 262.892C200.04 254.697 151.759 279.258 105.413 311.503C65.069 339.559 51.2587 354.721 62.4592 414.652C65.6997 432.036 76.7045 457.707 87.4047 489.142C109.349 553.587 71.985 583.286 174.377 646.921C220.876 670.277 279.575 678.541 346.952 676.134C297.452 694.861 262.698 700.763 151.759 661.504Z" fill="#65B035"/>
<path d="M108.109 658.171C78.0528 651.342 65.1124 660.184 64.112 672.337C62.894 687.129 71.4847 716.736 145.626 700.486C162.742 696.736 201.845 701.273 213.677 703.032C242.189 707.314 262.415 732.8 287.665 748.958C358.544 794.328 389.514 775.949 466.112 761.018C417.961 790.764 380.292 805.347 345.168 806.458C297.148 807.986 257.978 795.162 218.94 788.958C154.238 778.657 71.6152 761.319 52.4765 687.708C43.2986 652.384 82.5982 625.323 108.109 658.147V658.171Z" fill="#65B035"/>
<path d="M348.039 739.953C344.168 729.143 345.451 715.231 347.474 704.236C352.302 677.847 370.332 645.578 393.211 615.393C425.964 572.175 498.474 501.249 562.502 495.184C597.343 491.897 598.822 507.221 614.589 511.156C619.896 512.476 633.424 506.805 647.93 499.467C757.39 444.119 754.955 472.082 860 481.689C829.182 553.147 791.101 633.471 733.924 686.018C692.949 723.657 670.44 711.504 628.943 728.217C569.94 751.967 555.368 762.453 541.166 762.361C531.88 762.291 489.274 746.574 445.929 744.583C413.763 743.101 357.348 765.833 348.061 739.953H348.039ZM623.833 708.819C661.61 694.583 684.924 696.388 718.308 662.939C757.651 623.518 814.676 540.67 832.945 500.277C681.879 459.142 628.226 586.99 598.996 580.069C556.738 570.045 551.954 560.809 526.334 562.777C501.801 564.652 456.478 576.18 413.568 632.8C401.388 648.888 364.742 698.634 370.614 718.703C374.572 732.199 402.041 725.254 422.702 721.435C526.073 702.361 490.34 759.166 623.854 708.819H623.833Z" fill="#65B035"/>
<path d="M601.627 483.309C642.819 404.86 660.196 332.614 684.446 248.702C697.886 202.128 705.585 191.896 723.441 152.961C735.642 126.364 726.312 60.2756 756.433 53.5395C779.987 48.2617 801.91 82.6368 811.544 116.04C813.545 122.984 840.035 143.98 846.559 193.1C851.344 229.072 843.71 275.531 844.994 317.73C847.69 407.29 854.345 441.503 841.731 472.8C841.014 417.476 836.512 399.327 815.155 325.091C796.364 259.767 789.991 286.735 802.867 219.952C809.891 183.517 804.258 139.442 795.276 105.438C789.883 85.021 774.659 73.3312 759.13 78.3544C746.364 82.4747 760.218 162.892 750.583 182.012C732.401 218.123 720.614 221.132 708.717 262.452C683.163 351.225 676.116 398.702 601.627 483.309Z" fill="#65B035"/>
<path d="M324.573 235.021C312.72 207.058 305.695 179.072 323.877 151.248C340.993 125.068 364.96 84.3035 394.929 69.234C441.08 46.0627 535.729 65.5072 602.954 111.572C624.811 126.549 683.772 173.193 688.926 196.619C669.679 181.179 633.467 157.822 606.455 143.956C538.948 109.304 471.658 88.91 425.899 104.419C376.225 121.248 343.994 173.169 324.573 235.021Z" fill="#65B035"/>
<path d="M256.277 371.094C266.571 371.837 275.165 368.53 275.472 363.709C275.779 358.887 267.682 354.377 257.388 353.634C247.094 352.892 238.5 356.198 238.193 361.02C237.886 365.841 245.982 370.352 256.277 371.094Z" fill="#FA9803"/>
<path d="M275.095 361.642C317.744 374.744 353.389 413.401 388.078 454.582C413.959 485.323 441.101 517.592 471.158 537.43L464.677 542.476C433.968 522.499 408.718 491.55 382.25 460.115C350.214 422.082 319.135 382.892 281.619 368.332C279.401 367.475 274.768 365.762 272.507 365.068L275.095 361.619V361.642Z" fill="#FA9803"/>
<path d="M296.932 647.656C303.196 638.93 305.349 629.477 301.741 626.543C298.133 623.61 290.13 628.306 283.866 637.032C277.603 645.759 275.45 655.211 279.058 658.145C282.665 661.079 290.668 656.383 296.932 647.656Z" fill="#FA9803"/>
<path d="M295.582 630.74C330.597 561.388 390.405 544.443 459.022 547.082L452.454 552.661C392.189 551.967 329.379 574.282 299.54 633.402L295.582 630.74Z" fill="#FA9803"/>
<path d="M322.333 460.009C332.628 460.751 341.221 457.445 341.528 452.623C341.835 447.802 333.739 443.291 323.445 442.549C313.151 441.806 304.557 445.113 304.25 449.934C303.943 454.756 312.039 459.266 322.333 460.009Z" fill="#FA9803"/>
<path d="M339.818 449.929L420.223 471.388L420.94 481.156L340.362 455.346L339.818 449.929Z" fill="#FA9803"/>
<path d="M583.498 236.835C590.948 229.238 594.442 220.251 591.301 216.761C588.16 213.272 579.574 216.602 572.123 224.199C564.673 231.796 561.179 240.784 564.32 244.273C567.461 247.763 576.047 244.433 583.498 236.835Z" fill="#FA9803"/>
<path d="M568.004 243.401C551.932 265.762 540.144 311.272 533.424 358.286C526.334 407.753 524.768 461.434 527.4 504.212L518.809 507.939C516.177 463.934 518.439 407.522 525.66 357.036C532.554 308.795 547.125 264.489 564.046 240.901L567.982 243.401H568.004Z" fill="#FA9803"/>
<path d="M620.436 373.136C629.174 378.975 638.215 380.391 640.629 376.298C643.043 372.205 637.916 364.154 629.178 358.315C620.44 352.476 611.399 351.06 608.985 355.153C606.57 359.246 611.697 367.297 620.436 373.136Z" fill="#FA9803"/>
<path d="M621.94 362.36C542.319 349.86 539.622 433.402 546.299 498.055L545.799 498.147C543.385 487.893 542.036 483.448 537.469 470.508C532.141 404.814 553.759 347.568 622.441 358.332L621.94 362.383V362.36Z" fill="#FA9803"/>
<path d="M657.452 305.781C665.671 299.142 670.108 290.639 667.363 286.79C664.618 282.94 655.731 285.202 647.512 291.841C639.293 298.48 634.856 306.983 637.601 310.832C640.346 314.682 649.233 312.42 657.452 305.781Z" fill="#FA9803"/>
<path d="M644.146 309.767C602.519 333.008 561.11 448.24 551.975 496.735L545.56 498.147C554.194 449.281 600.997 328.471 642.384 305.369L644.124 309.767H644.146Z" fill="#FA9803"/>
<path d="M457.204 247.885C460.146 237.359 459.003 227.709 454.651 226.332C450.299 224.954 444.386 232.37 441.445 242.896C438.503 253.422 439.646 263.072 443.998 264.45C448.35 265.827 454.263 258.411 457.204 247.885Z" fill="#FA9803"/>
<path d="M447.3 262.267C445.147 278.98 444.429 298.447 447.582 315.207C450.758 332.059 459.327 356.48 465.96 373.471L455.847 359.906C449.061 342.522 445.516 334.35 442.21 316.827C438.883 299.188 440.601 278.401 442.863 260.739L447.278 262.267H447.3Z" fill="#FA9803"/>
<path d="M341.215 297.046C332.173 291.757 326.616 284.036 328.803 279.801C330.989 275.566 340.092 276.421 349.135 281.71C358.177 286.999 363.734 294.72 361.547 298.955C359.36 303.19 350.258 302.336 341.215 297.046Z" fill="#FA9803"/>
<path d="M361.328 293.818C374.616 304.697 388.122 319.86 397.409 334.883C406.63 349.836 410.371 356.712 417.026 374.142L418.57 394.906C412.219 378.239 404.934 355.23 393.429 336.897C383.468 321.017 370.484 308.031 358.74 298.424L361.349 293.795L361.328 293.818Z" fill="#FA9803"/>
</svg>
