<svg width="129" height="172" viewBox="0 0 129 172" fill="none" xmlns="http://www.w3.org/2000/svg">
<path d="M97.6 21.2C99.2 20.9333 101 20.8 103 20.8C105.133 20.8 107.533 21.2667 110.2 22.2C113 23.1333 115.8 24.6667 118.6 26.8C121.4 28.8 123.667 31.9333 125.4 36.2C127.267 40.4667 128.2 45.6 128.2 51.6C128.2 65.6 122.333 81.3333 110.6 98.8C99 116.267 85.4667 129.8 70 139.4C69.2 145.667 68.8 151 68.8 155.4C68.8 159.8 69.4667 164.667 70.8 170L60.8 171.4C59.2 167.533 58.4 160.8 58.4 151.2C58.4 148.8 58.5333 146.533 58.8 144.4C53.7333 146.133 50.0667 147 47.8 147C38.8667 147 31.5333 144 25.8 138C20.0667 131.867 17.2 123.933 17.2 114.2C17.2 109.933 17.7333 105.733 18.8 101.6C6.4 97.6 0.2 89 0.2 75.8C0.2 62.4667 7.66667 50.4 22.6 39.6C37.6667 28.6667 55.9333 22.4 77.4 20.8C77.5333 20.8 78.8667 19.1333 81.4 15.8C84.0667 12.3333 87 8.99999 90.2 5.79999C93.4 2.46666 95.7333 0.799993 97.2 0.799993C98.8 0.799993 100.4 1.46666 102 2.79999C103.733 3.99999 104.6 5.26666 104.6 6.59999C104.6 8.6 102.867 12.5333 99.4 18.4L97.6 21.2ZM23.2 84.6C25.6 75.2667 30.1333 66.2 36.8 57.4C43.6 48.6 51.7333 40.9333 61.2 34.4C47.8667 37.0667 37.4 41.8667 29.8 48.8C22.3333 55.7333 18.6 63.4 18.6 71.8C18.6 76.2 20.1333 80.4667 23.2 84.6ZM35.2 103.2L35 105.8C35 113.533 36.8 119.467 40.4 123.6C44 127.733 49.1333 129.8 55.8 129.8L60.2 128.8C61.4 113.733 63.7333 96.4 67.2 76.8C70.6667 57.2 74.9333 42.6667 80 33.2C74.8 33.2 69.4667 35.8667 64 41.2C58.5333 46.5333 53.8667 52.6667 50 59.6C46.2667 66.5333 43.1333 73 40.6 79C38.0667 84.8667 36.8 88.8 36.8 90.8C36.8 90.9333 37.9333 91 40.2 91C47.6667 91 52.4667 89.6 54.6 86.8L59.8 92.2C57.1333 94.7333 53.4 97.1333 48.6 99.4C43.8 101.533 39.3333 102.8 35.2 103.2ZM71.6 125C81.8667 119 91.1333 108.4 99.4 93.2C107.667 78 111.8 65 111.8 54.2C111.8 47.9333 109.867 42.9333 106 39.2C102.267 35.4667 97.1333 33.6 90.6 33.6C82.3333 54.5333 76 85 71.6 125Z" fill="#65B035"/>
</svg>
